<svg width="291" height="483" viewBox="0 0 291 483" fill="none" xmlns="http://www.w3.org/2000/svg">
<path d="M168.267 375.339C168.497 375.184 191.281 360.181 200.361 351.405C209.441 342.63 223.294 325.24 228.988 313.388C234.681 301.536 242.996 278.907 242.53 256.44C242.064 233.972 240.299 231.465 238.223 223.156C236.147 214.846 235.095 210.401 232.737 203.88C231.173 199.538 229.028 193.897 229.028 193.897C229.028 193.897 225.6 183.873 223.829 180.101C222.058 176.329 219.344 170.417 215.882 164.799C212.42 159.18 210.747 156.167 206.359 150.163C201.971 144.16 199.97 141.468 195.582 136.54C191.195 131.612 185.576 126.304 182.805 123.688C180.033 121.071 175.57 117.609 172.494 115.223C169.417 112.836 165.029 110.45 165.029 110.45C165.029 110.45 168.261 116.298 168.877 119.145C169.492 121.991 170.337 123.918 170.567 127.535C170.797 131.152 170.866 133.757 170.395 137.351C169.883 141.238 168.917 143.447 167.416 146.391C165.645 149.853 159.216 154.798 157.64 156.086C151.866 160.819 142.867 166.903 128.007 171.481C112.055 176.392 101.692 178.1 101.692 178.1C101.692 178.1 102.923 178.87 103.383 162.861C103.843 146.851 105.689 146.546 102.613 126.379C99.5359 106.212 98.6101 102.905 96.8044 98.017C92.802 87.1944 93.6301 82.5077 94.3777 79.0458C95.1252 75.5839 94.5099 74.4856 94.8952 71.9438C95.7521 66.291 95.9821 60.8509 95.5105 56.4747C95.0275 52.0123 92.9228 44.7263 88.7363 38.4639C84.5902 32.259 82.5832 29.9818 81.042 28.3601C80.1277 27.394 77.9425 25.7148 77.9425 25.7148C77.9425 25.7148 78.2702 27.5895 78.8511 30.6488C79.4319 33.7082 79.9494 36.5144 79.8689 43.927C79.7884 51.7823 79.0236 57.2223 76.7118 64.5543C74.4001 71.8863 70.1849 80.909 67.2464 86.6423C64.0893 92.8012 59.5866 100.07 55.7797 106.189C51.9728 112.307 46.757 120.657 41.8517 128.351C36.866 136.161 31.6732 148.421 29.0739 157.133C26.4747 165.851 24.3814 172.642 23.7661 181.797C23.1336 191.131 23.6051 200.429 26.2676 210.677C28.5161 219.337 32.8406 228.228 36.4864 233.535C41.2767 240.522 42.5648 240.482 42.5648 240.482C42.5648 240.482 60.823 269.764 74.6014 282.312C88.3798 294.854 110.985 299.357 120.066 307.131C129.146 314.906 138.519 319.771 145.615 325.447C152.924 331.295 157.72 337.374 160.084 343.918C163.471 353.309 165.495 356.402 166.881 362.947C168.267 369.491 168.267 375.339 168.267 375.339Z" fill="#FCEE21"/>
<path d="M203.179 334.127C203.179 334.127 215.261 312.965 219.264 297.726C223.266 282.486 224.341 276.713 224.152 268.806C223.853 256.511 222.018 242.083 217.803 232.151C213.588 222.22 208.107 212.065 204.991 206.987C201.874 201.909 181.787 173.432 173.012 161.735C164.236 150.039 158.233 141.263 153.925 132.488C149.618 123.713 143.448 109.066 142.648 98.7032C141.838 88.1969 141.493 72.9578 146.225 58.8746C150.958 44.7914 155.461 32.5541 163.77 23.2036C172.08 13.8532 176.928 8.66039 180.74 6.00362C184.553 3.34685 190.206 0 190.206 0C190.206 0 170.93 9.00543 161.344 15.1241C151.763 21.2427 137.91 30.7082 128.674 38.6727C119.439 46.6373 101.664 63.2623 92.8886 74.6887C84.1132 86.1152 74.5327 98.6974 69.1099 109.785C63.6871 120.866 59.5294 129.641 55.3717 143.84C51.214 158.038 49.4831 170.62 49.5981 181.587C49.7131 192.553 51.2141 204.445 56.8726 218.068C62.5312 231.691 73.4976 245.66 80.3063 253.394C87.115 261.129 108.358 278.099 117.018 285.833C125.678 293.568 138.405 303.528 143.569 308.692C149.147 314.27 157.462 322.89 159.463 327.123C161.464 331.355 165.156 335.743 167.313 344.052C169.469 352.362 170.084 357.98 169.619 363.679C169.153 369.378 168.693 370.798 168.693 370.798C168.693 370.798 170.539 357.986 167.767 348.365C164.995 338.745 161.746 331.28 153.224 322.815C144.414 314.069 139.152 311.895 128.979 305.96C119.347 300.336 108.68 294.58 98.5414 288.433C87.483 281.727 72.4107 271.33 64.3312 263.86C56.4183 256.546 51.8639 252.468 48.3215 248.316C44.7791 244.164 42.5479 240.542 42.5479 240.542C42.5479 240.542 38.5915 241.433 33.5425 241.082C29.1548 240.772 22.7659 238.31 17.2281 234.538C11.6903 230.766 5.91666 222.301 4.91606 220.225C3.91546 218.149 1.29894 209.684 1.29894 209.684C1.29894 209.684 0.988403 212.226 0.608864 215.607C0.229325 218.988 -0.547005 226.458 0.608864 233.848C1.76473 241.237 4.30075 249.628 8.53318 257.397C12.7656 265.166 17.1533 269.093 21.541 272.791C25.9287 276.483 30.0864 278.95 36.32 282.101C42.5537 285.258 57.5627 290.647 64.2564 293.183C70.9501 295.724 90.3296 302.476 98.3516 306.035C105.776 309.33 115.396 313.816 120.9 317.197C126.311 320.515 138.985 329.204 143.678 333.511C149.009 338.405 156.145 345.289 159.222 351.827C162.298 358.371 163.77 362.103 164.61 367.371C165.967 375.916 165.15 378.838 165.15 378.838C165.15 378.838 173.311 374.065 176.312 372.293C179.314 370.522 197.952 357.509 205.635 350.746C213.329 343.972 222.104 335.587 226.797 330.274C231.737 324.69 239.08 315.207 242.881 308.801C246.809 302.182 251.835 289.111 253.278 284.436C254.503 280.479 257.58 268.323 257.81 256.085C258.005 245.775 256.809 229.909 255.504 222.916C253.928 214.491 252.812 203.059 253.347 194.439C253.888 185.819 254.331 178.93 256.194 173.196C257.948 167.814 260.886 163.035 262.738 161.27C264.584 159.498 266.045 157.727 266.045 157.727C266.045 157.727 261.525 158.975 256.579 162.247C251.467 165.629 247.188 168.734 242.801 173.582C238.413 178.429 235.181 182.047 231.949 187.59C228.718 193.134 228.643 194.054 228.643 194.054C228.643 194.054 231.259 203.594 232.105 208.212C232.95 212.829 234.721 219.604 235.566 226.987C236.412 234.377 236.211 244.97 235.963 250.076C235.681 255.809 232.691 272.992 231.3 278.898C230.04 284.252 226.808 294.292 223.64 301.331C219.177 311.257 213.933 320.118 211.328 323.724C209.004 326.973 203.179 334.127 203.179 334.127Z" fill="#F15A24"/>
<path d="M169.145 370.85C169.145 370.85 193.171 340.464 197.197 328.715C201.469 316.248 205.432 295.045 202.504 282.423C199.577 269.8 190.894 254.515 180.031 240.133C170.64 227.706 163.625 220.897 157.483 212.122C150.324 201.892 147.241 192.581 146.706 186.733C145.913 177.992 148.708 176.802 148.708 176.802C148.708 176.802 137.776 187.084 133.929 198.625C130.081 210.167 129.046 214.025 129.535 220.897C130.352 232.324 135.499 242.514 142.014 251.49C147.126 258.541 150.789 261.531 150.789 261.531C150.789 261.531 146.931 262.008 142.629 260.605C139.104 259.461 135.424 257.391 133.198 253.256C131.105 249.368 130.26 243.003 130.26 243.003C130.26 243.003 129.437 244.757 128.316 248.949C127.154 253.296 127.034 260.157 128.241 263.969C130.064 269.726 137.799 278.098 142.106 282.567C146.413 287.029 149.346 289.91 153.038 294.373C156.73 298.835 160.22 303.533 164.177 311.228C167.788 318.243 171.693 324.994 172.78 335.587C173.47 342.338 173.763 349.843 172.205 357.347C170.594 365.093 169.145 370.85 169.145 370.85Z" fill="#F7931E"/>
<path d="M291 378.839H46.209V413.268H291V378.839Z" fill="black"/>
<path d="M266.117 413.277H71.252V447.706H266.117V413.277Z" fill="black"/>
<path d="M230.052 447.705H107.242V482.134H230.052V447.705Z" fill="black"/>
</svg>
