<svg width="1123" height="770" viewBox="0 0 1123 770" fill="none" xmlns="http://www.w3.org/2000/svg">
<line x1="1121.5" y1="6.5567e-08" x2="1121.5" y2="50" stroke="black" stroke-width="3"/>
<line x1="1.5" y1="400" x2="1.5" y2="450" stroke="black" stroke-width="3"/>
<line x1="1121.5" y1="160" x2="1121.5" y2="210" stroke="black" stroke-width="3"/>
<line x1="1.5" y1="560" x2="1.5" y2="610" stroke="black" stroke-width="3"/>
<line x1="1121.5" y1="80" x2="1121.5" y2="130" stroke="black" stroke-width="3"/>
<line x1="1.5" y1="480" x2="1.5" y2="530" stroke="black" stroke-width="3"/>
<line x1="1121.5" y1="240" x2="1121.5" y2="290" stroke="black" stroke-width="3"/>
<line x1="1.5" y1="640" x2="1.5" y2="690" stroke="black" stroke-width="3"/>
<line x1="1121.5" y1="320" x2="1121.5" y2="370" stroke="black" stroke-width="3"/>
<line x1="1.5" y1="720" x2="1.5" y2="770" stroke="black" stroke-width="3"/>
<line x1="800" y1="368.5" x2="850" y2="368.5" stroke="black" stroke-width="3"/>
<line x1="400" y1="368.5" x2="450" y2="368.5" stroke="black" stroke-width="3"/>
<line y1="368.5" x2="50" y2="368.5" stroke="black" stroke-width="3"/>
<line x1="960" y1="368.5" x2="1010" y2="368.5" stroke="black" stroke-width="3"/>
<line x1="560" y1="368.5" x2="610" y2="368.5" stroke="black" stroke-width="3"/>
<line x1="160" y1="368.5" x2="210" y2="368.5" stroke="black" stroke-width="3"/>
<line x1="880" y1="368.5" x2="930" y2="368.5" stroke="black" stroke-width="3"/>
<line x1="480" y1="368.5" x2="530" y2="368.5" stroke="black" stroke-width="3"/>
<line x1="80" y1="368.5" x2="130" y2="368.5" stroke="black" stroke-width="3"/>
<line x1="1040" y1="368.5" x2="1090" y2="368.5" stroke="black" stroke-width="3"/>
<line x1="640" y1="368.5" x2="690" y2="368.5" stroke="black" stroke-width="3"/>
<line x1="240" y1="368.5" x2="290" y2="368.5" stroke="black" stroke-width="3"/>
<line x1="720" y1="368.5" x2="770" y2="368.5" stroke="black" stroke-width="3"/>
<line x1="320" y1="368.5" x2="370" y2="368.5" stroke="black" stroke-width="3"/>
</svg>
