<svg width="883" height="290" viewBox="0 0 883 290" fill="none" xmlns="http://www.w3.org/2000/svg">
<line x1="640" y1="288.5" x2="690" y2="288.5" stroke="black" stroke-width="3"/>
<line x1="240" y1="288.5" x2="290" y2="288.5" stroke="black" stroke-width="3"/>
<line x1="80" y1="288.5" x2="130" y2="288.5" stroke="black" stroke-width="3"/>
<line y1="288.5" x2="50" y2="288.5" stroke="black" stroke-width="3"/>
<line x1="881.5" y1="6.5567e-08" x2="881.5" y2="50" stroke="black" stroke-width="3"/>
<line x1="800" y1="288.5" x2="850" y2="288.5" stroke="black" stroke-width="3"/>
<line x1="400" y1="288.5" x2="450" y2="288.5" stroke="black" stroke-width="3"/>
<line x1="881.5" y1="160" x2="881.5" y2="210" stroke="black" stroke-width="3"/>
<line x1="720" y1="288.5" x2="770" y2="288.5" stroke="black" stroke-width="3"/>
<line x1="320" y1="288.5" x2="370" y2="288.5" stroke="black" stroke-width="3"/>
<line x1="160" y1="288.5" x2="210" y2="288.5" stroke="black" stroke-width="3"/>
<line x1="881.5" y1="80" x2="881.5" y2="130" stroke="black" stroke-width="3"/>
<line x1="480" y1="288.5" x2="530" y2="288.5" stroke="black" stroke-width="3"/>
<line x1="881.5" y1="240" x2="881.5" y2="290" stroke="black" stroke-width="3"/>
<line x1="560" y1="288.5" x2="610" y2="288.5" stroke="black" stroke-width="3"/>
</svg>
