<svg width="782" height="339" viewBox="0 0 782 339" fill="none" xmlns="http://www.w3.org/2000/svg">
<path d="M90.651 140.746C68.261 136.29 52.0446 114.561 53.2999 88.7438C53.8555 77.256 58.4653 66.5449 66.3059 58.532C74.126 50.5396 84.2303 46.2061 94.7463 46.3696C103.472 46.5127 111.477 50.3352 117.322 57.1625C123.166 63.9898 126.129 73.0042 125.656 82.5093C124.854 98.9439 111.971 112.128 96.9277 111.903C90.7745 111.801 85.1358 109.103 81.02 104.299C76.9042 99.4958 74.8257 93.1386 75.1344 86.434C75.4019 80.7309 77.7067 75.3754 81.5962 71.4099C85.4857 67.4239 90.507 65.2775 95.7341 65.3593C100.22 65.4206 104.357 67.4034 107.382 70.9193C110.386 74.4351 111.93 79.0752 111.683 84.0015L99.9528 83.8175C100.015 82.3253 99.5618 80.9149 98.6563 79.852C97.7303 78.789 96.4749 78.1758 95.1167 78.1554C93.0176 78.1145 91.0009 78.9934 89.4369 80.5878C87.8729 82.1822 86.9468 84.3286 86.8439 86.618C86.6793 89.909 87.7082 93.016 89.725 95.3871C91.7417 97.7379 94.5199 99.0665 97.5245 99.1074C106.106 99.2301 113.453 91.7282 113.926 82.3458C114.214 76.2544 112.321 70.4696 108.575 66.0952C104.83 61.7208 99.7058 59.2679 94.1083 59.1861C86.741 59.0839 79.6412 62.1092 74.1466 67.7305C68.6519 73.3517 65.421 80.874 65.03 88.9278C63.9805 110.595 79.2708 128.481 99.1091 128.767C111.518 128.951 123.434 123.861 132.674 114.397C141.914 104.933 147.367 92.2801 148.026 78.7277C149.775 42.8742 124.463 13.3165 91.6388 12.826C49.8015 12.1923 13.9526 48.843 11.7301 94.5286L0 94.3447C2.55181 41.5864 43.9364 -0.726421 92.2562 0.00945476C131.542 0.602244 161.814 36.006 159.735 78.9117C158.912 95.8777 152.08 111.74 140.514 123.575C128.949 135.411 114.008 141.788 98.4711 141.563C95.8164 141.543 93.2028 141.257 90.651 140.746Z" fill="white"/>
<path d="M469.461 79.9182C469.461 122.55 434.915 157.096 392.283 157.096C349.652 157.096 315.105 122.55 315.105 79.9182C315.105 37.2866 349.652 2.74023 392.283 2.74023C434.915 2.74023 469.461 37.2866 469.461 79.9182Z" stroke="white" stroke-width="5" stroke-miterlimit="10"/>
<path d="M780 79.9182C780 122.55 745.249 157.096 702.365 157.096C659.481 157.096 624.73 122.55 624.73 79.9182C624.73 37.2866 659.481 2.74023 702.365 2.74023C745.249 2.74023 780 37.2866 780 79.9182Z" fill="white" stroke="white" stroke-width="3" stroke-miterlimit="10"/>
<path d="M308.851 264.719C325.241 225.15 306.451 179.785 266.882 163.395C227.312 147.004 181.947 165.794 165.557 205.364C149.166 244.933 167.956 290.298 207.526 306.689C247.095 323.079 292.46 304.289 308.851 264.719Z" fill="white" stroke="white" stroke-width="3" stroke-miterlimit="10"/>
<path d="M624.73 234.73C624.73 277.614 589.98 312.365 547.096 312.365C504.212 312.365 469.461 277.614 469.461 234.73C469.461 191.846 504.212 157.096 547.096 157.096C589.959 157.096 624.73 191.867 624.73 234.73Z" stroke="white" stroke-width="5" stroke-miterlimit="10"/>
</svg>
